<?xml version="1.0" standalone="no"?>
<!DOCTYPE svg PUBLIC "-//W3C//DTD SVG 20010904//EN"
 "http://www.w3.org/TR/2001/REC-SVG-20010904/DTD/svg10.dtd">
<svg version="1.0" xmlns="http://www.w3.org/2000/svg"
 width="291.000000pt" height="291.000000pt" viewBox="0 0 291.000000 291.000000"
 preserveAspectRatio="xMidYMid meet">
<metadata>
Created by potrace 1.11, written by Peter Selinger 2001-2013
</metadata>
<g transform="translate(0.000000,291.000000) scale(0.100000,-0.100000)"
fill="#000000" stroke="none">
<path d="M934 2822 c-3 -212 -99 -392 -270 -504 -42 -28 -67 -52 -71 -68 -10
-37 -9 -344 0 -420 8 -63 8 -64 -11 -47 -10 9 -32 17 -48 17 -16 0 -47 5 -68
10 -105 24 -237 -124 -293 -330 -15 -53 -18 -105 -18 -272 0 -113 3 -209 7
-213 6 -7 127 54 246 122 64 38 50 21 -24 -27 l-65 -43 6 -41 c70 -447 305
-780 653 -926 146 -62 225 -75 457 -74 196 0 217 2 310 27 56 15 149 51 210
82 242 120 411 305 520 570 37 89 95 296 95 340 0 17 -19 35 -80 75 -44 29
-80 55 -80 57 0 3 33 -13 73 -35 201 -110 249 -134 255 -127 4 4 7 100 7 213
0 167 -3 219 -18 272 -41 152 -122 272 -214 318 -33 17 -46 18 -103 10 -36 -6
-72 -13 -80 -17 -26 -14 -40 -54 -40 -122 0 -80 19 -103 94 -114 l49 -7 -6
-86 c-5 -89 -21 -176 -36 -200 -8 -13 -17 -12 -168 23 -23 5 -23 4 -23 -89 0
-271 -109 -521 -284 -653 -121 -91 -242 -136 -414 -154 -96 -10 -117 -9 -203
9 -369 77 -572 343 -605 794 -4 54 -10 98 -14 98 -4 0 -43 -7 -85 -16 -46 -9
-81 -12 -86 -7 -14 14 -39 158 -39 224 l0 58 51 7 c66 9 89 31 90 87 0 34 5
23 24 -59 99 -428 334 -801 679 -1081 118 -95 112 -94 193 -39 355 239 627
646 742 1111 45 180 73 499 57 647 -7 63 -9 67 -36 73 -83 18 -232 155 -283
258 -32 66 -67 194 -67 246 0 20 -3 53 -6 74 l-7 37 -486 0 -486 0 -1 -88z
m526 -183 c0 -7 7 -5 16 7 15 18 15 18 8 -5 -4 -17 -3 -21 6 -16 9 6 9 3 1
-14 -10 -17 -9 -20 4 -15 8 4 15 1 15 -5 0 -6 -16 -11 -35 -11 -47 0 -45 -20
3 -21 20 -1 29 -3 19 -6 -14 -4 -16 -8 -6 -19 10 -12 9 -13 -5 -8 -9 3 -16 10
-16 15 0 19 -28 8 -35 -13 l-8 -23 -4 23 c-2 12 -7 22 -11 22 -3 0 -17 -10
-30 -22 -25 -23 -25 -23 -13 -1 8 16 8 23 -2 26 -6 3 3 6 21 6 40 1 43 21 2
21 -16 0 -30 5 -30 10 0 6 5 10 11 10 8 0 8 4 1 13 -7 8 -6 18 5 32 15 19 15
19 8 -4 -5 -17 -4 -21 5 -16 9 5 10 1 5 -15 -5 -15 -4 -20 4 -16 6 4 11 18 11
32 0 35 20 55 37 38 7 -7 13 -18 13 -25z m-347 4 c3 9 11 17 16 17 6 0 8 -7 5
-15 -4 -10 0 -15 15 -15 15 0 21 -6 20 -22 -1 -17 -2 -19 -6 -5 -4 14 -16 17
-69 17 -50 0 -64 -3 -64 -15 0 -8 -4 -15 -10 -15 -5 0 -10 9 -10 20 0 15 7 20
25 20 19 0 23 4 18 18 -6 15 -4 15 15 -2 22 -19 22 -19 23 5 l1 24 7 -25 c6
-21 8 -22 14 -7z m135 15 c9 -9 15 -9 24 0 14 14 32 16 23 3 -3 -5 3 -12 12
-14 11 -3 6 -6 -12 -7 l-30 -2 30 -8 30 -8 -27 -1 c-16 0 -28 -5 -28 -11 0 -5
12 -10 28 -11 15 0 21 -3 15 -6 -18 -7 -16 -21 5 -26 13 -4 11 -5 -5 -6 -25
-1 -32 -21 -8 -21 8 0 15 -9 15 -20 0 -18 -7 -20 -60 -20 -53 0 -60 2 -60 20
0 11 7 20 15 20 24 0 17 20 -7 21 -17 1 -19 2 -5 6 20 5 22 19 5 26 -7 3 -1 6
15 6 15 1 27 6 27 11 0 6 -12 11 -27 11 l-28 1 30 8 30 8 -30 2 c-18 1 -23 4
-12 7 9 2 15 9 12 14 -9 13 9 11 23 -3z m357 -24 c0 -21 -4 -24 -35 -24 -25 0
-31 3 -21 9 12 8 12 12 2 24 -10 13 -9 16 6 19 32 7 48 -2 48 -28z m60 15
c-24 -5 -25 -7 -7 -8 15 -1 22 -7 22 -21 0 -14 -7 -20 -22 -21 -22 -1 -22 -1
2 -9 24 -8 24 -8 3 -9 -26 -1 -33 -41 -8 -41 8 0 15 -5 15 -11 0 -5 5 -7 10
-4 6 3 10 1 10 -4 0 -6 -13 -11 -30 -11 -29 0 -30 1 -30 50 0 43 3 50 20 50
11 0 20 5 20 10 0 6 -9 10 -20 10 -13 0 -20 7 -20 18 0 15 6 18 33 13 l32 -5
-30 -7z m105 1 c0 -15 7 -20 25 -20 23 0 25 -3 25 -49 0 -55 16 -74 37 -45 14
19 15 19 11 -1 -2 -13 -12 -21 -31 -23 -27 -3 -27 -2 -27 52 0 53 -1 56 -25
56 -16 0 -25 -6 -25 -15 0 -21 -29 -89 -35 -83 -3 3 2 21 10 41 19 47 19 57
-2 58 -17 1 -17 2 0 6 9 2 17 13 17 24 0 10 5 19 10 19 6 0 10 -9 10 -20z
m-640 -65 c0 -17 -6 -25 -17 -26 -10 -1 -4 -5 12 -9 l30 -8 -27 -1 c-43 -2
-35 -29 10 -34 20 -2 -1 -4 -48 -4 -54 0 -71 2 -47 6 46 7 52 24 11 32 l-29 7
35 2 c25 2 29 4 13 7 -16 3 -23 11 -23 29 0 21 4 24 40 24 36 0 40 -2 40 -25z
m478 -27 c-2 -24 -9 -43 -16 -46 -11 -3 -12 0 -3 16 15 28 14 32 -8 32 -14 0
-21 -8 -24 -27 -2 -17 -5 -10 -6 20 -1 46 0 47 30 47 29 0 30 -1 27 -42z
m-254 -494 c9 -3 16 -12 16 -18 0 -18 -21 -35 -36 -29 -15 5 -19 35 -7 46 8 8
8 8 27 1z m220 0 c19 -7 21 -40 4 -47 -29 -10 -53 25 -31 46 8 8 8 8 27 1z
m116 -94 l0 -30 -110 0 c-103 0 -110 -1 -110 -20 0 -19 7 -20 110 -20 l110 0
0 -25 c0 -24 -1 -24 -107 -27 -108 -3 -108 -3 -108 -28 0 -25 0 -25 108 -28
106 -3 107 -3 107 -27 0 -22 -4 -25 -35 -25 -33 0 -35 -2 -35 -35 l0 -35 70 0
c68 0 70 -1 70 -25 0 -24 -2 -25 -70 -25 l-70 0 0 -35 c0 -31 3 -35 26 -35 25
0 26 -2 21 -37 -17 -104 -105 -177 -213 -177 -113 0 -204 73 -221 177 -5 33
-3 37 16 37 17 0 21 6 21 35 l0 35 -60 0 c-57 0 -60 1 -60 25 0 24 3 25 60 25
l60 0 0 35 c0 34 -1 35 -40 35 -36 0 -40 3 -40 25 l0 25 115 0 115 0 0 30 0
30 -115 0 -115 0 0 25 0 25 115 0 c108 0 115 1 115 20 0 19 -7 20 -115 20
l-115 0 0 30 0 30 250 0 250 0 0 -30z m870 -277 c0 -3 -8 -15 -17 -26 -17 -19
-17 -20 4 -8 13 6 24 7 28 2 7 -13 -127 -83 -138 -72 -5 5 1 16 14 25 26 18
18 22 -12 6 -14 -8 -19 -7 -19 2 0 7 26 27 58 45 56 31 82 39 82 26z m47 -99
c8 -22 -13 -39 -73 -58 -59 -19 -86 -13 -82 18 6 39 142 75 155 40z m20 -80
c9 -24 -16 -42 -72 -51 -63 -11 -85 -7 -85 17 0 22 11 30 54 41 55 13 96 10
103 -7z m-2217 -64 c0 -20 -5 -30 -15 -30 -8 0 -15 5 -15 10 0 6 -27 10 -60
10 -46 0 -60 3 -60 15 0 12 12 13 65 8 46 -4 65 -2 65 6 0 6 5 11 10 11 6 0
10 -13 10 -30z m2230 -10 c0 -16 -10 -19 -80 -22 -59 -2 -80 0 -80 10 0 8 16
12 48 12 26 0 58 6 72 14 30 15 40 12 40 -14z m-2291 -36 c65 -7 83 -23 29
-25 l-33 -1 33 -10 c17 -6 32 -15 32 -19 0 -10 -120 -12 -144 -3 -28 11 -17
24 22 26 l37 1 -37 4 c-25 3 -38 9 -38 19 0 16 11 17 99 8z m2257 -14 c27 0
34 -4 34 -20 0 -16 -7 -20 -32 -21 l-33 -1 30 -7 c17 -3 31 -14 33 -24 3 -14
-4 -17 -40 -17 -24 0 -60 -3 -80 -6 -31 -5 -38 -4 -38 10 0 12 10 16 38 18
l37 1 -37 4 c-55 6 -51 33 5 34 23 1 33 3 22 6 -11 2 -30 6 -42 9 -13 2 -23 9
-23 16 0 7 15 9 46 4 26 -3 62 -6 80 -6z m-2196 -90 c0 -11 -7 -20 -15 -20 -8
0 -15 5 -15 10 0 6 -7 10 -15 10 -8 0 -15 -5 -15 -10 0 -7 -13 -8 -35 -4 -23
4 -35 2 -35 -5 0 -6 -7 -11 -15 -11 -9 0 -15 9 -15 25 0 25 1 25 80 25 73 0
80 -2 80 -20z m2220 -40 c6 -8 10 -18 10 -22 0 -17 -39 -25 -93 -19 -59 7 -80
22 -70 49 8 20 140 13 153 -8z m-57 -67 c58 -5 80 -22 30 -24 -28 0 -28 -1 -5
-11 23 -11 30 -28 11 -28 -42 0 -149 25 -146 34 2 6 15 10 28 9 l24 -3 -22 12
c-13 6 -23 15 -23 21 0 5 9 6 23 2 12 -4 48 -10 80 -12z m-207 -118 c31 -14
74 -28 96 -31 39 -7 43 -11 30 -31 -5 -8 -19 -9 -43 -4 -20 5 -65 5 -100 1
-35 -4 -56 -8 -47 -9 10 0 15 -7 12 -14 -4 -10 19 -20 79 -37 74 -19 84 -25
79 -42 -2 -10 -10 -17 -16 -15 -6 2 -42 12 -79 22 -59 16 -70 16 -78 4 -15
-24 -10 -46 11 -52 12 -3 20 0 20 8 0 8 8 11 20 8 11 -3 20 -12 20 -19 0 -20
27 -29 45 -14 8 7 21 10 29 7 12 -5 12 -12 4 -40 l-11 -35 -96 33 c-92 31 -96
33 -94 60 1 16 6 31 10 34 4 3 8 13 8 21 1 8 4 36 9 63 8 46 9 47 45 48 l36 1
-32 14 c-18 8 -33 21 -33 29 0 20 10 19 76 -10z m-1763 -24 c4 -16 -2 -20 -32
-25 -113 -20 -141 -28 -141 -42 0 -27 -37 -16 -43 14 -3 15 -3 29 -1 31 3 4
68 16 205 40 4 1 9 -8 12 -18z m17 -81 c19 -36 3 -58 -53 -75 -29 -9 -73 -19
-99 -22 -44 -5 -48 -4 -59 21 -11 23 -10 29 7 46 21 20 110 48 161 49 23 1 35
-5 43 -19z m24 -87 c7 -17 -8 -32 -34 -34 -8 -1 0 -4 19 -8 54 -10 49 -28 -10
-36 -31 -4 -73 -20 -102 -38 -40 -24 -51 -27 -58 -16 -13 22 -11 26 21 39 39
16 31 26 -9 12 -24 -9 -31 -8 -35 5 -4 9 -5 18 -2 20 4 4 187 72 197 73 4 0
10 -8 13 -17z m1693 -90 c69 -30 88 -42 85 -55 -2 -10 -5 -18 -8 -18 -13 0
-185 74 -190 81 -6 11 4 29 15 29 5 0 49 -17 98 -37z m-63 -36 c25 -18 11 -51
-16 -36 -10 6 -24 8 -31 6 -7 -2 16 -18 51 -36 35 -18 69 -30 75 -28 7 2 0 10
-16 18 -24 13 -26 17 -14 33 12 16 14 16 40 -5 20 -15 27 -29 25 -47 -5 -40
-29 -48 -81 -28 -93 35 -131 76 -113 122 7 17 56 18 80 1z m-1574 -21 c16 -20
9 -56 -13 -70 -25 -16 -43 13 -19 31 16 11 16 12 -1 13 -12 0 -24 -15 -37 -44
-20 -47 -44 -66 -82 -66 -52 0 -64 46 -21 80 25 19 28 19 36 4 7 -12 5 -19 -7
-26 -23 -13 -21 -31 3 -18 11 5 25 26 31 45 19 57 81 85 110 51z m1562 -98
c50 -34 64 -49 66 -72 6 -52 -36 -60 -101 -19 -84 54 -107 89 -75 121 20 20
44 14 110 -30z m-1492 -31 c0 -5 -12 -25 -27 -45 l-28 -37 36 27 c30 23 39 25
48 14 9 -11 -7 -27 -76 -79 -71 -53 -90 -63 -96 -51 -6 10 1 27 19 52 l28 37
-36 -27 c-30 -23 -38 -25 -47 -14 -9 11 6 27 73 77 47 34 84 65 81 67 -2 2
-42 -19 -89 -48 -79 -49 -106 -56 -106 -27 0 7 40 35 88 64 l87 52 22 -27 c13
-15 23 -31 23 -35z m1383 -21 c14 -11 15 -15 3 -25 -7 -6 -22 -8 -32 -4 -17 6
-17 5 -5 -10 10 -13 23 -15 50 -11 62 10 125 -58 89 -94 -15 -15 -43 -15 -69
-1 -16 8 -18 13 -9 24 9 11 17 12 32 4 25 -14 33 -6 12 11 -8 8 -32 13 -53 12
-67 -4 -114 53 -75 92 19 19 33 20 57 2z m-1266 -131 c-2 -5 -11 -10 -20 -10
-9 0 -43 -26 -75 -58 -41 -41 -63 -56 -75 -51 -9 3 -17 9 -17 13 0 4 27 33 60
66 32 32 57 62 54 67 -3 5 0 16 7 24 10 13 16 11 41 -13 15 -15 27 -32 25 -38z
m1177 20 c-3 -7 20 -41 50 -76 48 -55 53 -65 39 -73 -13 -7 -28 4 -73 54 -31
35 -61 60 -67 57 -6 -4 -16 0 -23 8 -9 11 -5 20 22 44 29 26 34 28 45 15 6 -9
9 -22 7 -29z m-30 -111 c65 -97 65 -127 0 -78 l-38 29 22 -32 c21 -30 22 -53
3 -53 -4 0 -29 31 -54 70 -34 50 -51 68 -62 63 -9 -3 -14 -12 -11 -20 3 -8 6
-17 6 -19 0 -2 9 -4 19 -4 22 0 34 -23 20 -37 -16 -16 1 -45 22 -40 11 3 19 4
19 2 0 -2 3 -10 6 -19 4 -10 -5 -20 -25 -30 l-31 -16 -36 72 c-20 40 -43 82
-51 94 -13 21 -11 23 33 48 l47 26 27 -25 c36 -34 46 -32 20 5 -20 28 -20 50
-1 50 4 0 34 -39 65 -86z m-1084 57 c13 -26 5 -44 -47 -113 -36 -47 -50 -58
-73 -58 -27 0 -40 15 -40 47 0 16 51 94 82 125 24 24 64 23 78 -1z m54 -37
c-1 -5 -5 -25 -8 -44 l-7 -35 21 37 c13 25 25 35 35 32 8 -4 15 -7 15 -9 0 -1
-23 -45 -51 -98 -37 -71 -54 -94 -65 -90 -15 6 -15 13 2 78 3 11 -5 3 -18 -17
-16 -27 -27 -35 -37 -29 -19 12 77 193 99 188 8 -2 14 -7 14 -13z m833 -102
c17 -42 37 -77 45 -77 17 0 32 -25 21 -36 -4 -4 -19 -10 -32 -11 -22 -3 -28 7
-63 91 -32 74 -37 95 -26 102 21 14 21 13 55 -69z m-719 56 c7 -7 12 -27 12
-45 0 -27 -4 -33 -21 -33 -18 0 -20 4 -15 25 4 14 2 25 -3 25 -11 0 -56 -129
-47 -137 7 -8 20 27 25 69 2 14 41 -6 40 -21 -1 -32 -35 -101 -44 -92 -6 5
-21 11 -35 13 -34 4 -37 36 -10 112 32 89 65 117 98 84z m646 -31 c9 -12 23
-52 33 -89 19 -74 11 -98 -32 -98 -30 0 -41 15 -65 86 l-20 59 6 -82 c3 -46 2
-83 -3 -83 -4 0 -18 -3 -30 -6 -22 -6 -30 13 -79 189 -4 12 0 17 15 17 15 0
23 -10 32 -42 18 -64 26 -65 19 -2 -6 54 -6 55 17 51 12 -2 28 2 34 9 18 22
57 17 73 -9z m-497 -18 c18 -15 17 -54 -3 -74 -12 -12 -13 -19 -5 -29 7 -9 8
-27 3 -52 -7 -35 -11 -39 -42 -42 -59 -4 -61 2 -42 117 l16 103 30 -6 c16 -3
35 -11 43 -17z m293 -9 c0 -11 -7 -20 -15 -20 -9 0 -15 -9 -15 -25 0 -16 6
-25 15 -25 19 0 20 -29 1 -36 -17 -7 -9 -54 10 -54 8 0 14 -9 14 -20 0 -16 -7
-20 -34 -20 l-33 0 -8 101 c-7 109 -4 119 43 119 15 0 22 -6 22 -20z m-200
-10 c0 -11 -7 -20 -15 -20 -8 0 -15 -9 -15 -20 0 -11 7 -20 15 -20 19 0 19
-14 1 -32 -23 -23 -30 -58 -12 -58 9 0 16 -9 16 -20 0 -16 -7 -20 -33 -20
l-34 0 4 83 c6 120 8 127 43 127 23 0 30 -4 30 -20z m56 -15 c9 -49 20 -52 16
-4 -3 29 0 39 11 39 19 0 27 -42 27 -136 0 -65 -2 -74 -18 -74 -13 0 -22 12
-29 37 l-10 38 -2 -37 c-1 -27 -6 -38 -16 -38 -12 0 -15 13 -15 59 0 32 -3 79
-6 105 -6 42 -5 46 14 46 16 0 23 -8 28 -35z"/>
<path d="M1420 2640 c0 -5 7 -10 15 -10 8 0 15 5 15 10 0 6 -7 10 -15 10 -8 0
-15 -4 -15 -10z"/>
<path d="M1420 2610 c0 -5 7 -10 15 -10 8 0 15 5 15 10 0 6 -7 10 -15 10 -8 0
-15 -4 -15 -10z"/>
<path d="M1240 2580 c0 -5 9 -10 20 -10 11 0 20 5 20 10 0 6 -9 10 -20 10 -11
0 -20 -4 -20 -10z"/>
<path d="M1240 2550 c0 -5 9 -10 20 -10 11 0 20 5 20 10 0 6 -9 10 -20 10 -11
0 -20 -4 -20 -10z"/>
<path d="M1210 2520 c0 -5 23 -10 50 -10 28 0 50 5 50 10 0 6 -22 10 -50 10
-27 0 -50 -4 -50 -10z"/>
<path d="M1566 2635 c4 -8 10 -15 15 -15 5 0 9 7 9 15 0 8 -7 15 -15 15 -9 0
-12 -6 -9 -15z"/>
<path d="M1065 2580 c3 -5 17 -10 31 -10 13 0 24 5 24 10 0 6 -14 10 -31 10
-17 0 -28 -4 -24 -10z"/>
<path d="M1560 2580 c0 -5 9 -10 21 -10 11 0 17 5 14 10 -3 6 -13 10 -21 10
-8 0 -14 -4 -14 -10z"/>
<path d="M1330 1705 l0 -35 115 0 115 0 0 35 0 35 -115 0 -115 0 0 -35z"/>
<path d="M1330 1585 l0 -35 115 0 115 0 0 35 0 35 -115 0 -115 0 0 -35z"/>
<path d="M1290 1504 c0 -23 48 -76 84 -93 54 -26 106 -27 156 -1 36 18 70 62
70 90 0 6 -53 10 -155 10 -85 0 -155 -3 -155 -6z"/>
<path d="M2522 1573 c-24 -8 -41 -17 -38 -20 6 -6 77 16 91 28 13 13 -2 10
-53 -8z"/>
<path d="M2535 1494 l-50 -13 50 5 c28 3 54 10 60 15 12 12 3 11 -60 -7z"/>
<path d="M2515 1250 c11 -5 38 -8 60 -8 38 0 39 1 10 8 -16 4 -43 8 -60 8 -25
1 -27 -1 -10 -8z"/>
<path d="M497 935 c-54 -15 -71 -25 -41 -25 23 0 124 26 132 34 9 10 -41 5
-91 -9z"/>
<path d="M2170 636 c0 -3 23 -19 103 -70 15 -10 27 -14 27 -9 0 6 -27 27 -59
47 -56 34 -71 41 -71 32z"/>
<path d="M865 350 c-25 -35 -43 -65 -40 -68 3 -3 7 -3 8 -1 40 49 88 121 84
125 -3 3 -26 -22 -52 -56z"/>
<path d="M1720 292 c0 -21 42 -144 47 -138 7 7 -28 135 -39 142 -4 3 -8 1 -8
-4z"/>
<path d="M1227 263 c-11 -10 -8 -43 3 -43 6 0 10 11 10 25 0 26 -2 29 -13 18z"/>
<path d="M1208 161 c-3 -17 -1 -31 3 -31 13 0 22 41 11 52 -6 6 -11 -1 -14
-21z"/>
</g>
</svg>
